# xmcd CD database file
#
# Track frame offsets:
#	150
#	23000
#	42747
#	62347
#	79790
#	94643
#	110989
#	131043
#	150355
#	171644
#	189313
#	205335
#	226642
#
# Disc length: 3298 seconds
#
# Revision: 0
# Processed by: cddbd v1.5.2PL0 Copyright (c) Steve Scherf et al.
# Submitted via: CDex 1.51
#
DISCID=a70ce00d
DTITLE=Various Artist - KKSF Sampler for AIDS Relief 17
DYEAR=2006
DGENRE=Jazz
TTITLE0=George Benson and Al Jarreau - Mornin'
TTITLE1=Philippe Saisse Trio - Do It Again
TTITLE2=Simply Red - Holding Back The Years (Acoustic)
TTITLE3=Najee - @nd 2 None
TTITLE4=Paul Hardcastle - Serene
TTITLE5=Earth, Wind and Fire - September
TTITLE6=Mindi Abair - True Blue
TTITLE7=Ramsey Lewis - Oh Happy Day
TTITLE8=David Pack - Biggest Part Of Me
TTITLE9=Wayman Tisdale - Get Down On It
TTITLE10=Kenny G - Baby G
TTITLE11=Diana Krall - Lock Of Love
TTITLE12=Ray Charles - Georgie On My Mind (Live)
EXTD=YEAR: 2006
EXTT0=
EXTT1=
EXTT2=
EXTT3=
EXTT4=
EXTT5=
EXTT6=
EXTT7=
EXTT8=
EXTT9=
EXTT10=
EXTT11=
EXTT12=
PLAYORDER=
